<svg width="132" height="42" viewBox="0 0 132 42" fill="none" xmlns="http://www.w3.org/2000/svg">
<path d="M67.251 4.03577H73.0737C73.9526 4.03577 74.7144 4.12854 75.3589 4.31409C76.0034 4.49475 76.5381 4.75842 76.9629 5.1051C77.3877 5.45178 77.7026 5.87415 77.9077 6.37219C78.1177 6.87024 78.2227 7.4342 78.2227 8.06409C78.2227 8.48889 78.1714 8.89417 78.0688 9.27991C77.9663 9.66077 77.8076 10.0123 77.5928 10.3346C77.3828 10.6569 77.1167 10.9449 76.7944 11.1989C76.4722 11.4479 76.0938 11.6554 75.6592 11.8214L78.1494 15.4835H75.3076L73.1543 12.2316H73.0884L69.5728 12.2242V15.4835H67.251V4.03577ZM73.1323 10.2174C73.5718 10.2174 73.9551 10.1661 74.2822 10.0636C74.6143 9.96106 74.8901 9.81702 75.1099 9.63147C75.3345 9.44592 75.5005 9.22131 75.6079 8.95764C75.7202 8.68909 75.7764 8.39124 75.7764 8.06409C75.7764 7.42444 75.5566 6.93127 75.1172 6.58459C74.6777 6.23303 74.0161 6.05725 73.1323 6.05725H69.5728V10.2174H73.1323ZM79.9954 11.1329C79.9954 10.547 80.115 9.98792 80.3543 9.45569C80.5936 8.91858 80.9378 8.44495 81.387 8.03479C81.8362 7.62463 82.3855 7.29749 83.035 7.05334C83.6893 6.8092 84.4314 6.68713 85.2615 6.68713C86.0867 6.68713 86.8289 6.81165 87.4881 7.06067C88.1521 7.30481 88.7137 7.64172 89.1727 8.07141C89.6365 8.5011 89.9905 9.00647 90.2347 9.58752C90.4837 10.1686 90.6082 10.7911 90.6082 11.4552C90.6082 11.5382 90.6058 11.6285 90.6009 11.7262C90.6009 11.819 90.596 11.9044 90.5862 11.9825H82.4124C82.5052 12.2413 82.6541 12.4781 82.8592 12.693C83.0691 12.9078 83.3304 13.0934 83.6429 13.2496C83.9554 13.4059 84.3167 13.528 84.7269 13.6158C85.137 13.6989 85.5911 13.7404 86.0892 13.7404C86.5872 13.7404 87.0828 13.6891 87.576 13.5865C88.0691 13.4791 88.5403 13.3448 88.9896 13.1837L89.722 14.839C89.4388 14.9708 89.1507 15.088 88.8577 15.1906C88.5696 15.2882 88.2669 15.3712 87.9495 15.4396C87.637 15.5031 87.3074 15.5519 86.9607 15.5861C86.6189 15.6202 86.2576 15.6373 85.8768 15.6373C84.9051 15.6373 84.053 15.5201 83.3206 15.2858C82.5882 15.0514 81.9754 14.7316 81.4822 14.3263C80.9891 13.921 80.618 13.4449 80.3689 12.8981C80.1199 12.3512 79.9954 11.7628 79.9954 11.1329ZM88.3084 10.2906C88.2303 10.0514 88.1082 9.82922 87.9422 9.62415C87.7811 9.41418 87.5784 9.23352 87.3343 9.08215C87.0901 8.9259 86.8069 8.80383 86.4847 8.71594C86.1624 8.62805 85.8084 8.58411 85.4227 8.58411C85.0125 8.58411 84.639 8.63049 84.3021 8.72327C83.9651 8.81604 83.6697 8.94055 83.4158 9.0968C83.1619 9.25305 82.9495 9.43372 82.7786 9.63879C82.6126 9.84387 82.4905 10.0612 82.4124 10.2906H88.3084ZM92.1246 11.1842C92.1246 10.5494 92.2394 9.95862 92.4688 9.41174C92.7032 8.85999 93.0426 8.38391 93.4869 7.98352C93.9361 7.57825 94.483 7.26086 95.1275 7.03137C95.777 6.80188 96.5167 6.68713 97.3468 6.68713C97.7081 6.68713 98.0719 6.70911 98.4381 6.75305C98.8043 6.797 99.1559 6.86047 99.4928 6.94348C99.8346 7.02161 100.154 7.11682 100.452 7.22913C100.75 7.33655 101.009 7.45618 101.229 7.58801L100.225 9.22131C99.7516 9.00159 99.3023 8.84045 98.8775 8.73792C98.4576 8.63538 98.0304 8.58411 97.5958 8.58411C97.0978 8.58411 96.651 8.65002 96.2555 8.78186C95.86 8.90881 95.523 9.08948 95.2447 9.32385C94.9713 9.55334 94.7613 9.82678 94.6148 10.1442C94.4732 10.4567 94.4024 10.7985 94.4024 11.1696C94.4024 11.5406 94.4781 11.8849 94.6295 12.2023C94.7857 12.5148 95.003 12.7858 95.2813 13.0153C95.5646 13.2399 95.9039 13.4181 96.2994 13.5499C96.6998 13.6769 97.1441 13.7404 97.6324 13.7404C98.1695 13.7404 98.6749 13.6647 99.1485 13.5133C99.6271 13.3619 100.071 13.1593 100.482 12.9054L101.485 14.5387C101.226 14.6949 100.945 14.8414 100.643 14.9781C100.34 15.11 100.015 15.2247 99.6686 15.3224C99.3268 15.42 98.9654 15.4957 98.5846 15.5494C98.2086 15.608 97.818 15.6373 97.4127 15.6373C96.5875 15.6373 95.8478 15.525 95.1935 15.3004C94.5392 15.0758 93.985 14.7657 93.5309 14.3702C93.0768 13.9698 92.7276 13.4987 92.4835 12.9567C92.2442 12.4147 92.1246 11.8239 92.1246 11.1842ZM103.521 3.33997H105.689V7.50012C106.143 7.2511 106.649 7.05334 107.205 6.90686C107.767 6.76038 108.355 6.68713 108.971 6.68713C109.683 6.68713 110.323 6.79211 110.89 7.00208C111.461 7.21204 111.944 7.51477 112.34 7.91028C112.735 8.3009 113.038 8.77698 113.248 9.3385C113.463 9.90002 113.57 10.5323 113.57 11.2355V15.4835H111.41V11.3234C111.41 10.9132 111.344 10.5397 111.212 10.2028C111.08 9.86096 110.887 9.56799 110.633 9.32385C110.379 9.07971 110.069 8.89172 109.703 8.75989C109.342 8.62317 108.932 8.55481 108.473 8.55481C107.921 8.55481 107.408 8.6427 106.934 8.81848C106.461 8.99426 106.046 9.21643 105.689 9.48499V15.4835H103.521V3.33997Z" fill="#009B7F"/>
<path d="M66.5552 25.6901C66.5552 24.8746 66.709 24.1154 67.0166 23.4122C67.3242 22.7042 67.7686 22.0914 68.3496 21.5739C68.9355 21.0514 69.6484 20.6412 70.4883 20.3434C71.333 20.0455 72.2876 19.8966 73.3521 19.8966C74.2847 19.8966 75.1392 19.9918 75.9155 20.1823C76.6968 20.3678 77.4219 20.6534 78.0908 21.0392L77.0215 22.797C76.8213 22.6652 76.5894 22.548 76.3257 22.4454C76.0669 22.3429 75.7886 22.2574 75.4907 22.1891C75.1978 22.1158 74.8926 22.0597 74.5752 22.0206C74.2627 21.9816 73.9526 21.962 73.645 21.962C72.9028 21.962 72.2412 22.0548 71.6602 22.2404C71.0791 22.421 70.5884 22.6774 70.188 23.0094C69.7925 23.3365 69.4897 23.7296 69.2798 24.1886C69.0747 24.6427 68.9722 25.1432 68.9722 25.6901C68.9722 26.2565 69.0796 26.7765 69.2944 27.2501C69.5093 27.7238 69.8193 28.1339 70.2246 28.4806C70.6348 28.8224 71.1328 29.0909 71.7188 29.2863C72.3096 29.4767 72.9761 29.5719 73.7183 29.5719C74.0552 29.5719 74.3896 29.5475 74.7217 29.4987C75.0537 29.4498 75.3735 29.3839 75.6812 29.3009C75.9937 29.213 76.2939 29.1105 76.582 28.9933C76.8701 28.8712 77.1387 28.7394 77.3877 28.5978L78.457 30.3556C77.832 30.756 77.1094 31.0709 76.2891 31.3004C75.4688 31.525 74.5972 31.6373 73.6743 31.6373C72.4976 31.6373 71.4648 31.486 70.5762 31.1832C69.6875 30.8756 68.9453 30.4557 68.3496 29.9235C67.7539 29.3864 67.3047 28.7565 67.002 28.0338C66.7041 27.3063 66.5552 26.525 66.5552 25.6901ZM79.9295 27.1622C79.9295 26.5421 80.054 25.9611 80.303 25.4191C80.5569 24.8771 80.9158 24.4034 81.3797 23.9982C81.8484 23.5929 82.4124 23.2731 83.0716 23.0387C83.7356 22.8043 84.4803 22.6871 85.3055 22.6871C86.1307 22.6871 86.8729 22.8043 87.532 23.0387C88.1961 23.2731 88.7601 23.5929 89.2239 23.9982C89.6927 24.4034 90.0516 24.8771 90.3006 25.4191C90.5545 25.9611 90.6814 26.5421 90.6814 27.1622C90.6814 27.7823 90.5545 28.3634 90.3006 28.9054C90.0516 29.4474 89.6927 29.921 89.2239 30.3263C88.7601 30.7316 88.1961 31.0514 87.532 31.2858C86.8729 31.5201 86.1307 31.6373 85.3055 31.6373C84.4803 31.6373 83.7356 31.5201 83.0716 31.2858C82.4124 31.0514 81.8484 30.7316 81.3797 30.3263C80.9158 29.921 80.5569 29.4474 80.303 28.9054C80.054 28.3634 79.9295 27.7823 79.9295 27.1622ZM82.2073 27.1622C82.2073 27.5089 82.2757 27.8385 82.4124 28.151C82.554 28.4586 82.7566 28.7321 83.0203 28.9713C83.2889 29.2057 83.6136 29.3937 83.9944 29.5353C84.3802 29.672 84.8172 29.7404 85.3055 29.7404C85.7937 29.7404 86.2283 29.672 86.6092 29.5353C86.9949 29.3937 87.3196 29.2057 87.5833 28.9713C87.8519 28.7321 88.0545 28.4586 88.1912 28.151C88.3328 27.8385 88.4036 27.5089 88.4036 27.1622C88.4036 26.8156 88.3328 26.486 88.1912 26.1735C88.0545 25.861 87.8519 25.5875 87.5833 25.3531C87.3196 25.1139 86.9949 24.9259 86.6092 24.7892C86.2283 24.6476 85.7937 24.5768 85.3055 24.5768C84.8172 24.5768 84.3802 24.6476 83.9944 24.7892C83.6136 24.9259 83.2889 25.1139 83.0203 25.3531C82.7566 25.5875 82.554 25.861 82.4124 26.1735C82.2757 26.486 82.2073 26.8156 82.2073 27.1622ZM92.63 22.8409H94.7979V23.5734C95.3399 23.2413 95.8673 23.0118 96.38 22.8849C96.8976 22.7531 97.4029 22.6871 97.8961 22.6871C98.5846 22.6871 99.2169 22.797 99.7931 23.0167C100.369 23.2365 100.862 23.5685 101.273 24.0128C101.59 23.7687 101.902 23.5636 102.21 23.3976C102.518 23.2267 102.825 23.09 103.133 22.9874C103.441 22.88 103.753 22.8043 104.07 22.7604C104.388 22.7115 104.715 22.6871 105.052 22.6871C105.76 22.6871 106.402 22.7848 106.978 22.9801C107.554 23.1705 108.045 23.4562 108.45 23.837C108.86 24.2179 109.175 24.694 109.395 25.2653C109.62 25.8317 109.732 26.4884 109.732 27.2355V31.4835H107.571V27.587C107.571 27.1134 107.503 26.691 107.366 26.3199C107.234 25.944 107.046 25.629 106.802 25.3751C106.563 25.1163 106.275 24.921 105.938 24.7892C105.606 24.6525 105.24 24.5841 104.839 24.5841C104.62 24.5841 104.395 24.6061 104.166 24.65C103.936 24.6891 103.712 24.7526 103.492 24.8405C103.277 24.9283 103.074 25.0406 102.884 25.1774C102.693 25.3092 102.527 25.4655 102.386 25.6461V31.4835H100.225V27.587C100.225 27.1134 100.157 26.691 100.02 26.3199C99.8883 25.944 99.7003 25.629 99.4562 25.3751C99.2169 25.1163 98.9264 24.921 98.5846 24.7892C98.2477 24.6525 97.8766 24.5841 97.4713 24.5841C97.2223 24.5841 96.9708 24.611 96.7169 24.6647C96.4679 24.7135 96.2262 24.7843 95.9918 24.8771C95.7623 24.9698 95.545 25.0822 95.3399 25.214C95.1397 25.3458 94.9591 25.4948 94.7979 25.6608V31.4835H92.63V22.8409ZM114.273 35.0138H112.105V22.8409H114.273V23.6539C114.464 23.5221 114.688 23.3976 114.947 23.2804C115.206 23.1632 115.484 23.0607 115.782 22.9728C116.08 22.8849 116.388 22.8165 116.705 22.7677C117.022 22.714 117.34 22.6871 117.657 22.6871C118.39 22.6871 119.061 22.7946 119.671 23.0094C120.287 23.2242 120.814 23.527 121.253 23.9176C121.693 24.3082 122.035 24.777 122.279 25.3239C122.528 25.8658 122.652 26.4664 122.652 27.1256C122.652 27.8141 122.523 28.4366 122.264 28.9933C122.005 29.545 121.646 30.0187 121.187 30.4142C120.733 30.8048 120.191 31.1075 119.561 31.3224C118.936 31.5323 118.258 31.6373 117.525 31.6373C117.213 31.6373 116.903 31.6178 116.595 31.5787C116.292 31.5397 115.999 31.486 115.716 31.4176C115.438 31.3492 115.174 31.2687 114.925 31.1759C114.681 31.0782 114.464 30.9733 114.273 30.861V35.0138ZM114.273 28.7662C114.493 28.942 114.725 29.0909 114.969 29.213C115.213 29.3351 115.462 29.4352 115.716 29.5133C115.97 29.5914 116.226 29.65 116.485 29.6891C116.744 29.7233 116.996 29.7404 117.24 29.7404C117.738 29.7404 118.18 29.6744 118.565 29.5426C118.956 29.4059 119.283 29.2203 119.547 28.986C119.815 28.7516 120.02 28.4757 120.162 28.1583C120.304 27.8409 120.374 27.4967 120.374 27.1256C120.374 26.7789 120.304 26.4518 120.162 26.1442C120.025 25.8365 119.825 25.568 119.561 25.3385C119.303 25.1041 118.988 24.921 118.617 24.7892C118.25 24.6525 117.838 24.5841 117.379 24.5841C117.086 24.5841 116.793 24.6134 116.5 24.672C116.207 24.7257 115.924 24.8038 115.65 24.9064C115.382 25.0089 115.128 25.1334 114.889 25.2799C114.654 25.4264 114.449 25.59 114.273 25.7706V28.7662ZM125.707 24.4669H123.619V22.8409H125.707V20.153H127.875V22.8409H129.962V24.4669H127.875V31.4835H125.707V24.4669Z" fill="#211212"/>
<path d="M0.315002 24.4751C0.311946 24.481 0.302734 24.4789 0.302734 24.4723C0.302734 18.7158 0.302734 12.966 0.302734 7.20996C0.302734 6.79712 0.42539 6.40228 0.506855 5.99702C0.514343 5.95977 0.519626 5.92252 0.522035 5.88527C0.559845 5.29309 0.764021 4.75208 0.945511 4.19645C1.29337 3.12906 2.12519 2.39797 2.90409 1.64495C3.29732 1.26479 3.78129 1.01621 4.28795 0.782266C4.82486 0.533695 5.36933 0.380167 5.93648 0.277814C6.31458 0.212016 6.70025 0.175461 7.08592 0.138907C7.63795 0.0877307 8.18242 0.00731089 8.73445 0.00731089C20.5086 -6.32803e-09 32.2828 0.0073109 44.0493 0C45.1912 0 46.3255 -5.06242e-08 47.4523 0.226638C48.1102 0.358234 48.7681 0.48983 49.3655 0.811509C51.256 1.84235 52.4735 3.37032 52.9953 5.41737C53.0736 5.6901 53.2297 6.00342 53.2297 6.28647V7.57374C53.2297 8.25652 52.7028 8.8794 51.9971 8.90467C50.8325 8.94123 49.6755 8.97047 48.511 8.97778C46.6431 8.9924 44.7753 8.98509 42.9075 8.98509C40.9867 8.98509 39.0584 8.98509 37.1376 8.99971C36.5024 8.99971 35.8672 9.04358 35.232 9.03627C34.6194 9.03627 34.0372 9.15324 33.4549 9.29946C32.5852 9.51148 31.8063 9.91357 31.0804 10.4034C30.5889 10.7324 30.0746 11.0468 29.6738 11.4635C28.5244 12.6478 27.564 13.9638 27.1859 15.5941C27.1103 15.9158 27.0347 16.2448 27.012 16.5738C26.9515 17.378 27.0347 18.1749 27.1481 18.9718C27.2313 19.5493 27.3977 20.105 27.6699 20.624C27.8589 20.9896 28.1009 21.3259 28.3278 21.6695C28.7588 22.3275 29.2504 22.9562 29.8629 23.4534C31.1106 24.4623 32.4794 25.2665 34.143 25.4931C34.6194 25.5589 35.0883 25.6686 35.5647 25.7124C35.9957 25.749 36.4343 25.7344 36.8654 25.7344C39.1945 25.7344 41.5161 25.727 43.8452 25.7197C45.5013 25.7197 47.1574 25.7197 48.8135 25.7197C49.6982 25.7197 50.5754 25.7197 51.4602 25.7197C51.7551 25.7197 52.0576 25.6905 52.3525 25.6759C52.5416 25.6686 52.6701 25.727 52.6247 25.9317C52.5567 26.2607 52.534 26.619 52.3828 26.9187C51.9593 27.7522 51.3014 28.4101 50.5452 28.9511C49.9856 29.3532 49.3428 29.6603 48.7151 29.9747C48.2312 30.2159 47.7321 30.4645 47.1876 30.5084C46.439 30.5742 45.6828 30.6034 44.9341 30.6253C44.0267 30.6473 43.1192 30.6253 42.2193 30.6253C41.3119 30.6253 40.4044 30.6253 39.5045 30.6253C38.5895 30.6253 37.6745 30.6253 36.7671 30.6253C35.8747 30.6327 34.9749 30.6107 34.0825 30.618C32.0483 30.6327 30.0217 30.618 27.9875 30.618C27.8665 30.618 27.7455 30.5522 27.6245 30.5522C27.2767 30.5669 26.9288 30.6034 26.5734 30.618C26.4146 30.618 26.2482 30.5595 26.0894 30.5595C25.7794 30.5595 25.4618 30.6107 25.1517 30.618C24.9854 30.618 24.819 30.5595 24.6451 30.5669C24.2972 30.5669 23.9493 30.618 23.6015 30.618C22.9512 30.618 22.3008 30.5888 21.6505 30.5888C21.0077 30.5888 20.3725 30.618 19.7297 30.618C19.034 30.618 18.3383 30.618 17.635 30.618C14.8144 30.618 12.0013 30.6327 9.18061 30.6327C8.68908 30.6327 8.19754 30.5669 7.70601 30.5449C7.06323 30.523 6.42802 30.4572 5.80793 30.2817C5.20296 30.1136 4.65849 29.8431 4.10646 29.5653C3.36538 29.1851 2.74529 28.6806 2.17813 28.0958C1.61854 27.5182 1.20262 26.8529 0.915263 26.1145C0.771583 25.749 0.695962 25.3615 0.597655 24.9813C0.545192 24.7857 0.537297 24.5757 0.323663 24.4723C0.320496 24.4708 0.316586 24.472 0.315002 24.4751Z" fill="url(#paint0_linear_1879_3976)"/>
<path d="M53.2373 20.81C53.2373 20.8581 53.1886 20.8916 53.151 20.8601C53.1181 20.8326 53.0577 20.8399 53.0464 20.8805C53.0311 20.935 53.0148 20.9916 52.9953 21.0481C52.8063 21.6549 52.3677 21.9839 51.7249 22.0204C50.9384 22.0716 50.152 22.1155 49.358 22.1155C45.0703 22.1155 40.7826 22.0862 36.4873 22.0716C35.9201 22.0716 35.353 22.0716 34.801 21.9327C33.7725 21.6841 32.8197 21.2893 32.1164 20.4998C31.4736 19.776 31.0653 18.9279 30.8838 17.9921C30.7477 17.3122 30.8384 16.6396 31.0653 15.9743C31.2846 15.3456 31.572 14.768 31.9879 14.2416C32.4189 13.6933 32.9785 13.2912 33.6213 13.0207C34.0599 12.8379 34.5212 12.7063 34.9824 12.5821C35.2774 12.5089 35.595 12.4651 35.905 12.4651C37.1376 12.4505 38.3778 12.4651 39.6104 12.4651C43.0209 12.4505 46.4239 12.4285 49.8344 12.4285C50.4998 12.4285 51.1729 12.487 51.8383 12.5674C52.3903 12.6332 52.8365 12.9184 53.1087 13.4155C53.1591 13.5129 53.2373 13.5954 53.2373 13.7044V20.81ZM36.3663 19.6483C36.3663 19.6462 36.3682 19.6445 36.3704 19.6446C37.1701 19.6946 37.8267 19.4094 38.3324 18.8182C38.6576 18.4308 38.9525 18.0067 38.9979 17.495C39.0735 16.6104 38.7484 15.8866 37.9922 15.3602C37.062 14.7095 35.6101 14.5779 34.7405 15.3017C34.0069 15.9085 33.7045 16.6615 33.8255 17.5827C33.9765 18.6782 35.2068 19.7519 36.3628 19.652C36.3648 19.6518 36.3663 19.6502 36.3663 19.6483Z" fill="url(#paint1_linear_1879_3976)"/>
<path d="M44.3367 41.1311C43.7696 41.1311 43.278 41.1677 42.8016 41.1238C42.3101 41.0726 41.8034 40.9922 41.3346 40.8387C40.6615 40.6193 40.0112 40.3196 39.3457 40.0637C38.9676 39.9175 38.582 39.7932 38.1963 39.6543C37.5687 39.4204 36.941 39.1864 36.3134 38.9525C35.8672 38.7916 35.421 38.6527 34.9824 38.4846C34.2716 38.2068 33.5683 37.9143 32.8651 37.6292C32.5626 37.5049 32.2601 37.366 31.95 37.249C31.3678 37.0297 30.7779 36.8396 30.1805 36.6495C29.7343 36.5033 29.3033 36.3132 28.8647 36.1451C28.169 35.8746 27.4657 35.6114 26.77 35.3409C26.2785 35.1508 25.7945 34.9315 25.2954 34.756C24.7434 34.5586 24.1687 34.3978 23.6091 34.2077C23.2083 34.0688 22.8151 33.9006 22.4294 33.7325C22.4224 33.7294 22.4158 33.7258 22.4094 33.7217C22.2966 33.6488 22.3844 33.4254 22.5201 33.4254C23.1175 33.4254 23.7149 33.4181 24.3199 33.4254C24.6224 33.4254 24.9324 33.4547 25.2349 33.4547C32.7365 33.4547 40.2305 33.4547 47.7321 33.4547C48.6698 33.4547 49.6075 33.4254 50.5149 33.1769C50.8628 33.0818 51.1955 32.9575 51.5358 32.8406C51.7173 32.7821 51.74 32.8771 51.7249 33.016C51.7173 33.0745 51.6871 33.133 51.6644 33.1842C51.1804 34.3247 50.6737 35.4505 50.22 36.5984C49.6226 38.119 48.6017 39.2961 47.233 40.2026C46.8549 40.4512 46.4541 40.6705 46.0306 40.8314C45.6676 40.9703 45.2593 41.0068 44.8661 41.0799C44.6695 41.1165 44.4653 41.1238 44.3443 41.1311H44.3367Z" fill="url(#paint2_linear_1879_3976)"/>
<defs>
<linearGradient id="paint0_linear_1879_3976" x1="24.679" y1="-1.79385e-05" x2="41.2597" y2="39.1272" gradientUnits="userSpaceOnUse">
<stop stop-color="#17FFC7"/>
<stop offset="1" stop-color="#004D3F"/>
</linearGradient>
<linearGradient id="paint1_linear_1879_3976" x1="24.679" y1="-1.79385e-05" x2="41.2597" y2="39.1272" gradientUnits="userSpaceOnUse">
<stop stop-color="#17FFC7"/>
<stop offset="1" stop-color="#004D3F"/>
</linearGradient>
<linearGradient id="paint2_linear_1879_3976" x1="24.679" y1="-1.79385e-05" x2="41.2597" y2="39.1272" gradientUnits="userSpaceOnUse">
<stop stop-color="#17FFC7"/>
<stop offset="1" stop-color="#004D3F"/>
</linearGradient>
</defs>
</svg>
