<svg width="25" height="24" viewBox="0 0 25 24" fill="none" xmlns="http://www.w3.org/2000/svg">
<path d="M12.0068 3.5625H13.4131C13.5381 3.5625 13.6006 3.625 13.6006 3.75V20.25C13.6006 20.375 13.5381 20.4375 13.4131 20.4375H12.0068C11.8818 20.4375 11.8193 20.375 11.8193 20.25V3.75C11.8193 3.625 11.8818 3.5625 12.0068 3.5625Z" fill="white"/>
<path d="M4.83496 11.1094H20.585C20.71 11.1094 20.7725 11.1719 20.7725 11.2969V12.7031C20.7725 12.8281 20.71 12.8906 20.585 12.8906H4.83496C4.70996 12.8906 4.64746 12.8281 4.64746 12.7031V11.2969C4.64746 11.1719 4.70996 11.1094 4.83496 11.1094Z" fill="white"/>
</svg>
