<svg width="71" height="74" viewBox="0 0 71 74" fill="none" xmlns="http://www.w3.org/2000/svg">
<path d="M67.8542 60.3418C66.1042 56.1964 63.5645 52.431 60.3767 49.2554C57.1986 46.0705 53.4338 43.5313 49.2903 41.7778C49.2532 41.7593 49.2161 41.75 49.179 41.7314C54.9587 37.5566 58.7161 30.7563 58.7161 23.084C58.7161 10.374 48.4182 0.0761719 35.7082 0.0761719C22.9983 0.0761719 12.7004 10.374 12.7004 23.084C12.7004 30.7563 16.4578 37.5566 22.2375 41.7407C22.2004 41.7593 22.1633 41.7686 22.1262 41.7871C17.97 43.5405 14.2405 46.0547 11.0398 49.2646C7.85496 52.4428 5.3157 56.2075 3.56224 60.3511C1.83965 64.4076 0.910611 68.7568 0.825427 73.1631C0.822951 73.2621 0.840319 73.3606 0.876507 73.4528C0.912695 73.545 0.966971 73.629 1.03614 73.6999C1.1053 73.7708 1.18796 73.8272 1.27924 73.8656C1.37052 73.9041 1.46857 73.9239 1.56761 73.9238H7.13402C7.54223 73.9238 7.86693 73.5991 7.87621 73.2002C8.06176 66.0381 10.9377 59.3306 16.0217 54.2466C21.282 48.9863 28.2678 46.0918 35.7082 46.0918C43.1487 46.0918 50.1345 48.9863 55.3948 54.2466C60.4788 59.3306 63.3547 66.0381 63.5403 73.2002C63.5496 73.6084 63.8743 73.9238 64.2825 73.9238H69.8489C69.9479 73.9239 70.046 73.9041 70.1373 73.8656C70.2285 73.8272 70.3112 73.7708 70.3804 73.6999C70.4495 73.629 70.5038 73.545 70.54 73.4528C70.5762 73.3606 70.5935 73.2621 70.5911 73.1631C70.4983 68.7285 69.5798 64.4146 67.8542 60.3418ZM35.7082 39.041C31.4499 39.041 27.4421 37.3804 24.427 34.3652C21.4119 31.3501 19.7512 27.3423 19.7512 23.084C19.7512 18.8257 21.4119 14.8179 24.427 11.8027C27.4421 8.7876 31.4499 7.12695 35.7082 7.12695C39.9665 7.12695 43.9744 8.7876 46.9895 11.8027C50.0046 14.8179 51.6653 18.8257 51.6653 23.084C51.6653 27.3423 50.0046 31.3501 46.9895 34.3652C43.9744 37.3804 39.9665 39.041 35.7082 39.041Z" fill="black" fill-opacity="0.45"/>
</svg>
