<svg width="19" height="17" viewBox="0 0 19 17" fill="none" xmlns="http://www.w3.org/2000/svg">
<path d="M17.21 12.3335H10.21C9.65768 12.3335 9.20996 11.9044 9.20996 11.3752V5.62516C9.20996 5.09589 9.65768 4.66683 10.21 4.66683H17.21M17.21 12.3335C17.7622 12.3335 18.21 11.9044 18.21 11.3752V5.62516C18.21 5.09589 17.7622 4.66683 17.21 4.66683M17.21 12.3335V15.2085C17.21 15.7378 16.7622 16.1668 16.21 16.1668H2.20996C1.65768 16.1668 1.20996 15.7378 1.20996 15.2085V1.79183C1.20996 1.26256 1.65768 0.833496 2.20996 0.833496H16.21C16.7622 0.833496 17.21 1.26256 17.21 1.79183V4.66683" stroke="#7A9BBE" stroke-width="1.2"/>
</svg>
